<?xml version="1.0" standalone="no"?>
<!DOCTYPE svg PUBLIC "-//W3C//DTD SVG 20010904//EN"
 "http://www.w3.org/TR/2001/REC-SVG-20010904/DTD/svg10.dtd">
<svg version="1.0" xmlns="http://www.w3.org/2000/svg"
 width="1200.000000pt" height="1200.000000pt" viewBox="0 0 1200.000000 1200.000000"
 preserveAspectRatio="xMidYMid meet">
<metadata>
Created by potrace 1.14, written by Peter Selinger 2001-2017
</metadata>
<g transform="translate(0.000000,1200.000000) scale(0.100000,-0.100000)"
fill="#000000" stroke="none">
<path d="M5630 9924 c-910 -99 -1718 -666 -2121 -1489 -89 -182 -136 -304
-184 -480 -146 -533 -119 -1116 77 -1645 141 -382 413 -786 699 -1041 406
-361 834 -572 1354 -668 508 -95 1078 -25 1557 189 929 415 1550 1318 1596
2319 31 670 -178 1318 -591 1831 -98 121 -343 358 -468 452 -557 419 -1234
607 -1919 532z m568 -115 c154 -16 380 -65 526 -113 412 -136 820 -399 1094
-706 449 -503 675 -1091 674 -1760 0 -999 -599 -1915 -1523 -2331 -120 -54
-356 -131 -502 -163 -259 -58 -661 -72 -927 -31 -1017 154 -1855 910 -2107
1900 -82 324 -104 703 -58 1015 82 555 354 1086 756 1475 403 390 907 632
1474 709 122 17 460 20 593 5z"/>
<path d="M4963 8950 c-130 -27 -186 -105 -276 -387 -54 -167 -89 -327 -112
-512 -24 -189 -17 -581 14 -761 51 -297 150 -606 225 -705 13 -17 48 -44 77
-60 l54 -30 243 -3 242 -4 0 -49 0 -49 -332 0 c-198 0 -348 -4 -370 -10 -50
-14 -97 -55 -119 -105 -17 -36 -19 -70 -19 -306 l0 -267 28 -53 c20 -39 38
-58 71 -76 l44 -23 1205 0 1206 0 44 21 c26 13 54 38 70 62 l27 40 3 276 c2
234 1 282 -13 318 -20 51 -71 98 -122 112 -23 7 -169 11 -370 11 l-333 0 0 49
0 49 243 4 c229 3 244 4 289 26 86 42 122 99 193 304 205 588 202 1235 -10
1834 -65 186 -93 226 -195 280 -33 18 -79 19 -1000 21 -531 0 -984 -3 -1007
-7z m1979 -65 c62 -22 93 -57 138 -164 70 -161 132 -396 167 -626 25 -170 25
-583 0 -745 -49 -309 -159 -664 -229 -737 -65 -67 4 -63 -1072 -63 -859 0
-981 2 -1014 15 -74 32 -100 71 -164 250 -145 406 -192 878 -129 1301 48 319
167 681 243 735 69 49 42 48 1059 49 836 0 961 -2 1001 -15z m-552 -2445 l0
-50 -450 0 -450 0 0 50 0 50 450 0 450 0 0 -50z m-612 -472 l-3 -363 -520 0
c-494 0 -521 1 -548 19 -55 37 -57 51 -57 350 l0 274 27 32 c14 18 36 36 47
40 12 5 254 9 539 9 l517 1 -2 -362z m1417 321 c43 -48 48 -84 43 -370 l-3
-226 -28 -36 c-17 -23 -41 -40 -65 -47 -24 -6 -266 -10 -674 -10 l-638 0 0 50
0 50 458 0 c343 0 461 3 470 12 9 9 12 78 12 249 0 131 -3 244 -6 253 -5 14
-56 16 -470 16 l-464 0 0 50 0 50 666 -2 666 -3 33 -36z m-485 -199 l0 -90
-440 0 -440 0 0 90 0 90 440 0 440 0 0 -90z m0 -240 l0 -90 -440 0 -440 0 0
90 0 90 440 0 440 0 0 -90z"/>
<path d="M4942 8807 c-21 -25 -72 -149 -107 -259 -76 -240 -109 -493 -109
-818 1 -247 17 -412 59 -606 48 -220 136 -449 178 -459 12 -3 461 -4 997 -3
l975 3 32 60 c44 83 108 282 138 428 40 204 50 317 50 587 0 149 -6 299 -13
360 -31 248 -104 522 -175 655 l-32 60 -991 3 c-801 2 -994 0 -1002 -11z
m1868 -82 l-34 -35 -836 0 -836 0 -34 35 -34 35 904 0 904 0 -34 -35z m-1779
-124 c-62 -122 -115 -323 -143 -541 -16 -125 -15 -518 1 -645 27 -209 89 -441
147 -544 l25 -45 -45 -44 -44 -45 -15 29 c-54 105 -121 358 -154 579 -25 170
-25 620 0 790 33 223 97 466 149 569 l20 39 43 -43 44 -43 -28 -56z m1919 57
c62 -161 102 -321 132 -533 18 -122 17 -649 0 -770 -21 -144 -50 -283 -83
-390 -28 -90 -74 -213 -85 -224 -7 -8 -84 72 -84 86 0 8 13 39 29 71 89 180
138 429 148 757 11 383 -41 710 -151 937 l-32 67 40 41 c23 22 44 40 48 40 3
0 21 -37 38 -82z m-711 -99 c-295 -225 -572 -512 -772 -801 -134 -193 -302
-507 -385 -716 l-29 -74 -16 44 c-27 70 -65 228 -84 350 -25 161 -25 595 0
758 31 200 93 406 145 488 l14 22 610 0 610 0 -93 -71z m549 46 c7 -14 12 -30
12 -35 0 -4 -36 -29 -81 -55 -358 -210 -707 -539 -951 -895 -128 -186 -270
-457 -354 -672 l-37 -98 -134 0 c-131 0 -134 0 -144 24 -13 28 7 88 98 291
244 545 614 1003 1112 1377 l116 87 176 0 176 1 11 -25z m57 -129 c15 -34 57
-191 68 -254 6 -30 3 -35 -40 -65 -132 -92 -283 -217 -412 -342 -272 -264
-460 -516 -655 -877 l-48 -88 -159 0 c-87 0 -159 2 -159 5 0 13 53 143 102
250 228 497 574 922 998 1225 98 70 269 178 283 179 4 1 14 -14 22 -33z m88
-388 c3 -18 9 -63 12 -99 l7 -65 -74 -60 c-312 -252 -599 -595 -779 -931 l-44
-83 -112 0 c-62 0 -113 2 -113 5 0 10 60 125 112 212 168 287 385 558 608 761
105 95 355 292 371 292 4 0 9 -15 12 -32z m14 -468 c-8 -298 -48 -498 -144
-712 l-26 -58 -328 0 c-181 0 -329 2 -329 4 0 11 92 165 165 276 155 235 338
444 545 622 90 77 116 95 119 81 2 -10 1 -106 -2 -213z m-127 -865 l34 -35
-909 0 -909 0 34 35 34 35 841 0 841 0 34 -35z"/>
<path d="M4752 6228 c-16 -16 -16 -140 0 -156 8 -8 48 -12 114 -12 l103 0 3
-52 c3 -45 6 -53 23 -53 17 0 20 8 23 53 l3 52 80 0 79 0 0 -44 c0 -46 19 -72
45 -62 11 4 15 20 15 56 l0 50 80 0 80 0 0 -50 c0 -36 4 -52 15 -56 26 -10 45
16 45 62 l0 43 108 3 107 3 0 85 0 85 -455 3 c-346 2 -459 -1 -468 -10z m868
-78 l0 -30 -410 0 -410 0 0 30 0 30 410 0 410 0 0 -30z"/>
<path d="M6847 6224 c-13 -13 -8 -499 5 -512 18 -18 282 -17 297 2 8 9 11 87
9 262 l-3 249 -151 3 c-82 1 -153 -1 -157 -4z m123 -254 l0 -210 -35 0 -35 0
0 210 0 210 35 0 35 0 0 -210z m130 0 l0 -210 -35 0 -35 0 0 210 0 210 35 0
35 0 0 -210z"/>
<path d="M3720 4053 c-53 -19 -82 -89 -60 -143 36 -87 175 -84 219 5 20 41 0
100 -42 125 -30 19 -85 25 -117 13z"/>
<path d="M6424 4007 c-3 -8 -4 -176 -2 -373 3 -341 4 -361 24 -405 12 -25 37
-57 55 -70 29 -21 45 -24 116 -24 45 0 86 5 91 10 6 6 5 39 -1 83 -9 57 -14
72 -28 72 -36 0 -39 19 -41 371 l-3 344 -103 3 c-81 2 -103 0 -108 -11z"/>
<path d="M8360 3585 l0 -435 84 0 84 0 6 31 6 31 38 -31 c74 -58 135 -66 217
-27 59 27 98 70 134 146 23 49 26 67 26 170 0 99 -3 122 -23 165 -45 97 -116
147 -212 148 -44 0 -68 -6 -104 -26 l-46 -26 0 145 0 144 -105 0 -105 0 0
-435z m347 1 c27 -23 28 -28 28 -119 0 -81 -3 -100 -21 -124 -24 -32 -82 -43
-121 -22 -22 12 -23 17 -23 129 0 99 3 119 18 132 39 35 82 36 119 4z"/>
<path d="M2870 3948 c0 -7 52 -192 117 -411 l116 -398 131 3 130 3 118 400
c65 220 118 403 118 408 0 4 -47 7 -105 7 -100 0 -106 -1 -115 -22 -5 -13 -37
-147 -71 -298 -34 -151 -65 -279 -69 -283 -4 -4 -12 18 -19 50 -16 72 -109
465 -122 516 l-10 37 -109 0 c-80 0 -110 -3 -110 -12z"/>
<path d="M6810 3545 l0 -405 105 0 105 0 0 160 0 160 120 0 120 0 0 -160 0
-160 110 0 110 0 0 405 0 405 -110 0 -110 0 0 -150 0 -150 -120 0 -120 0 0
150 0 150 -105 0 -105 0 0 -405z"/>
<path d="M4605 3928 c-4 -13 -25 -136 -25 -150 0 -5 -12 -8 -27 -8 -70 0 -74
-5 -71 -89 l3 -76 43 -3 42 -3 0 -143 c0 -164 13 -216 65 -268 43 -41 85 -56
160 -57 57 0 130 11 142 22 4 5 -10 93 -23 137 -3 11 -15 14 -47 12 -34 -3
-46 1 -62 18 -17 19 -20 39 -23 151 l-4 129 71 0 71 0 0 85 0 85 -70 0 -70 0
0 85 0 85 -85 0 c-60 0 -87 -4 -90 -12z"/>
<path d="M5903 3775 c-29 -8 -75 -26 -103 -40 l-50 -25 35 -70 c19 -39 36 -70
38 -70 1 0 29 11 62 25 33 13 76 25 95 25 42 0 80 -24 80 -49 0 -15 -11 -20
-50 -25 -78 -10 -167 -41 -206 -71 -109 -83 -91 -271 29 -326 74 -33 157 -20
234 37 18 13 24 14 27 3 15 -51 11 -49 101 -49 l85 0 0 218 c0 287 -15 339
-117 399 -38 22 -61 27 -127 30 -50 2 -101 -3 -133 -12z m167 -392 c0 -51 -32
-83 -81 -83 -50 0 -69 29 -44 66 18 28 67 53 103 54 19 0 22 -5 22 -37z"/>
<path d="M4311 3758 c-24 -11 -56 -39 -71 -60 l-29 -39 -6 38 c-4 21 -7 45 -8
53 -2 12 -21 16 -90 18 l-87 3 0 -316 0 -315 105 0 105 0 0 170 c0 184 4 203
55 250 22 20 38 25 88 27 l61 1 17 89 c12 64 14 90 5 95 -23 15 -102 8 -145
-14z"/>
<path d="M3667 3764 c-4 -4 -7 -146 -7 -316 l0 -308 110 0 110 0 -2 313 -3
312 -101 3 c-55 1 -103 0 -107 -4z"/>
<path d="M5030 3555 c0 -117 5 -237 11 -264 20 -97 77 -152 162 -159 67 -5
114 9 173 54 46 35 50 34 56 -16 3 -24 6 -25 91 -28 l87 -3 0 316 0 315 -105
0 -105 0 0 -199 c0 -193 -1 -201 -22 -225 -32 -37 -80 -44 -107 -17 -20 20
-21 31 -21 231 l0 210 -110 0 -110 0 0 -215z"/>
<path d="M7632 3533 c3 -231 4 -240 29 -294 33 -69 72 -99 142 -106 69 -7 124
9 174 52 23 19 43 35 46 35 2 0 7 -18 11 -40 l6 -40 85 0 85 0 0 315 0 315
-105 0 -105 0 0 -203 c0 -199 0 -204 -23 -225 -31 -29 -77 -37 -102 -18 -19
13 -20 28 -23 230 l-3 216 -111 0 -110 0 4 -237z"/>
</g>
</svg>
