<?xml version="1.0" standalone="no"?>
<!DOCTYPE svg PUBLIC "-//W3C//DTD SVG 20010904//EN"
 "http://www.w3.org/TR/2001/REC-SVG-20010904/DTD/svg10.dtd">
<svg version="1.0" xmlns="http://www.w3.org/2000/svg"
 width="1200.000000pt" height="1200.000000pt" viewBox="0 0 1200.000000 1200.000000"
 preserveAspectRatio="xMidYMid meet">
<metadata>
Created by potrace 1.14, written by Peter Selinger 2001-2017
</metadata>
<g transform="translate(0.000000,1200.000000) scale(0.100000,-0.100000)"
fill="#000000" stroke="none">
<path d="M5630 9924 c-824 -90 -1553 -551 -1997 -1263 -403 -645 -507 -1430
-288 -2178 184 -630 602 -1174 1173 -1526 100 -62 322 -177 387 -200 22 -8 72
-26 111 -40 185 -69 460 -129 674 -148 165 -14 464 -6 610 16 747 116 1373
497 1815 1105 190 260 339 587 424 925 54 219 66 324 66 620 0 292 -9 387 -56
600 -85 386 -282 795 -531 1104 -86 106 -326 344 -428 422 -570 442 -1259 639
-1960 563z m570 -114 c143 -18 346 -59 465 -95 835 -253 1488 -915 1728 -1750
114 -397 131 -857 47 -1250 -136 -626 -482 -1159 -1004 -1544 -321 -237 -730
-404 -1146 -468 -164 -25 -579 -25 -739 0 -491 77 -905 264 -1279 576 -729
608 -1059 1563 -867 2506 116 567 470 1134 930 1489 385 297 796 469 1270 531
123 16 480 19 595 5z"/>
<path d="M4957 8949 c-123 -29 -178 -102 -255 -339 -109 -335 -142 -542 -142
-887 0 -283 29 -501 100 -754 65 -230 129 -371 189 -418 64 -50 89 -54 346
-60 l240 -6 0 -45 0 -45 -355 -5 c-390 -5 -389 -5 -444 -70 -42 -51 -47 -91
-44 -373 3 -298 8 -317 81 -365 l41 -27 1214 -3 1215 -2 44 21 c27 13 55 37
71 62 l27 41 0 297 0 297 -31 39 c-64 79 -55 78 -451 81 l-353 3 0 49 0 48
243 4 c229 3 244 4 289 26 86 42 122 99 193 304 199 571 202 1198 8 1781 -31
92 -70 191 -87 220 -37 62 -105 111 -176 126 -63 14 -1906 13 -1963 0z m1974
-60 c55 -19 97 -57 125 -111 70 -138 149 -414 186 -653 30 -189 32 -598 5
-775 -35 -224 -84 -407 -164 -618 -29 -75 -44 -100 -79 -131 -24 -21 -58 -41
-75 -45 -17 -3 -465 -6 -996 -6 -847 0 -968 2 -1001 15 -74 32 -100 71 -163
246 -208 582 -209 1247 -5 1811 70 193 98 233 185 264 49 18 1930 20 1982 3z
m-541 -2449 l0 -50 -450 0 -450 0 0 50 0 50 450 0 450 0 0 -50z m-612 -472
l-3 -363 -520 0 c-494 0 -521 1 -548 19 -55 37 -57 51 -57 343 0 294 2 301 59
340 l34 23 519 0 518 0 -2 -362z m1412 326 c17 -17 35 -48 40 -70 5 -21 10
-143 10 -269 0 -220 -1 -233 -22 -275 -44 -84 -5 -80 -740 -80 l-648 0 0 50 0
50 458 0 c343 0 461 3 470 12 9 9 12 78 12 249 0 131 -3 244 -6 253 -5 14 -56
16 -470 16 l-464 0 0 50 0 50 665 -2 665 -3 30 -31z m-480 -204 l0 -90 -440 0
-440 0 0 90 0 90 440 0 440 0 0 -90z m0 -240 l0 -90 -440 0 -440 0 0 90 0 90
440 0 440 0 0 -90z"/>
<path d="M4932 8788 c-68 -111 -141 -357 -177 -595 -76 -506 -10 -1123 158
-1463 l32 -65 995 0 994 0 23 40 c76 135 143 377 179 640 22 164 26 598 6 755
-35 280 -113 560 -189 683 l-23 37 -989 0 -989 0 -20 -32z m1878 -63 l-34 -35
-836 0 -836 0 -34 35 -34 35 904 0 904 0 -34 -35z m-1780 -126 c-62 -121 -113
-318 -142 -539 -16 -124 -16 -519 0 -640 32 -239 91 -453 153 -559 l20 -34
-45 -46 -45 -45 -24 54 c-61 137 -119 370 -149 590 -17 123 -17 593 0 720 30
234 82 438 147 585 l26 59 44 -44 44 -43 -29 -58z m1924 49 c109 -280 152
-579 144 -985 -6 -265 -22 -394 -73 -598 -32 -128 -101 -325 -114 -325 -4 0
-24 21 -45 46 l-38 45 35 77 c94 208 134 418 144 747 7 231 -6 413 -42 591
-28 141 -75 286 -114 361 l-28 51 41 41 c22 23 44 41 48 41 3 0 23 -42 42 -92z
m-690 -69 c-191 -143 -437 -372 -582 -543 -238 -279 -469 -663 -600 -995 l-29
-73 -21 58 c-27 73 -66 239 -84 359 -18 123 -18 588 1 710 34 224 83 395 149
513 l13 22 611 0 611 0 -69 -51z m524 26 c18 -39 16 -41 -45 -76 -85 -47 -264
-171 -373 -257 -127 -100 -386 -362 -487 -493 -171 -221 -347 -529 -454 -796
l-53 -133 -133 0 c-132 0 -134 0 -145 25 -9 21 -4 42 38 147 248 625 687 1181
1238 1567 l59 41 172 0 172 0 11 -25z m59 -132 c21 -52 74 -265 69 -280 -3 -6
-33 -30 -67 -54 -203 -137 -506 -423 -674 -634 -137 -172 -269 -380 -404 -635
-7 -12 -38 -16 -170 -18 l-163 -3 7 23 c51 169 240 529 385 738 235 337 548
631 900 847 47 28 89 52 93 52 4 1 15 -16 24 -36z m87 -380 c3 -16 8 -59 11
-98 l6 -70 -73 -60 c-180 -146 -338 -307 -498 -505 -70 -87 -227 -325 -281
-427 l-44 -83 -112 0 c-62 0 -113 2 -113 5 0 12 64 132 125 233 176 297 421
593 665 804 74 64 291 228 301 228 4 0 10 -12 13 -27z m14 -470 c-10 -305 -50
-503 -145 -715 l-26 -58 -328 0 c-181 0 -329 2 -329 4 0 2 19 37 41 78 68 119
179 285 275 408 149 192 500 530 514 494 3 -7 2 -102 -2 -211z m-137 -860 c16
-16 29 -31 29 -35 0 -5 -406 -8 -902 -8 l-902 0 34 35 34 35 839 0 839 0 29
-27z"/>
<path d="M4752 6228 c-16 -16 -16 -140 0 -156 8 -8 48 -12 114 -12 l103 0 3
-52 c3 -45 6 -53 23 -53 17 0 20 8 23 53 l3 52 80 0 79 0 0 -38 c0 -47 19 -76
43 -66 13 5 17 18 17 55 l0 49 80 0 80 0 0 -49 c0 -37 4 -50 17 -55 24 -10 43
19 43 66 l0 37 108 3 107 3 0 85 0 85 -455 3 c-346 2 -459 -1 -468 -10z m868
-78 l0 -30 -410 0 -410 0 0 30 0 30 410 0 410 0 0 -30z"/>
<path d="M6847 6224 c-13 -13 -8 -499 5 -512 18 -18 282 -17 297 2 8 9 11 87
9 262 l-3 249 -151 3 c-82 1 -153 -1 -157 -4z m123 -254 l0 -210 -35 0 -35 0
0 210 0 210 35 0 35 0 0 -210z m130 0 l0 -210 -35 0 -35 0 0 210 0 210 35 0
35 0 0 -210z"/>
<path d="M3691 4034 c-39 -33 -50 -85 -27 -128 23 -42 50 -58 101 -58 93 0
144 67 111 147 -28 66 -128 87 -185 39z"/>
<path d="M6424 4007 c-3 -8 -4 -176 -2 -373 l3 -359 25 -50 c35 -70 89 -98
182 -93 37 2 72 8 77 13 5 6 4 40 -2 83 -8 58 -13 72 -27 72 -38 0 -40 19 -42
371 l-3 344 -103 3 c-81 2 -103 0 -108 -11z"/>
<path d="M8360 3585 l0 -435 81 0 c80 0 80 0 91 30 l10 30 38 -30 c72 -57 134
-64 215 -26 59 27 98 70 134 146 23 49 26 67 26 170 0 127 -18 185 -73 243
-69 73 -182 91 -267 44 l-45 -26 0 145 0 144 -105 0 -105 0 0 -435z m336 10
c34 -23 47 -67 42 -149 -2 -56 -9 -82 -24 -103 -24 -32 -70 -41 -115 -23 l-29
12 0 118 c0 99 3 119 18 132 34 30 77 36 108 13z"/>
<path d="M2870 3948 c0 -7 46 -167 101 -358 56 -190 108 -369 117 -398 l15
-53 130 3 130 3 37 125 c21 69 57 190 80 270 23 80 60 204 81 275 22 72 39
133 39 138 0 4 -47 7 -105 7 -100 0 -106 -1 -115 -22 -5 -13 -37 -144 -70
-293 -34 -148 -64 -277 -67 -285 -4 -9 -9 0 -15 25 -6 22 -23 94 -38 160 -47
201 -80 338 -91 378 l-10 37 -109 0 c-79 0 -110 -3 -110 -12z"/>
<path d="M6810 3545 l0 -405 105 0 105 0 0 160 0 160 120 0 120 0 0 -160 0
-160 110 0 110 0 0 405 0 405 -110 0 -110 0 0 -150 0 -151 -117 3 -118 3 -3
148 -3 147 -104 0 -105 0 0 -405z"/>
<path d="M4605 3928 c-4 -13 -25 -136 -25 -150 0 -5 -12 -8 -27 -8 -70 0 -74
-5 -71 -89 l3 -76 43 -3 42 -3 0 -142 c0 -152 7 -191 42 -244 42 -63 149 -96
259 -79 70 11 73 14 59 82 -18 94 -15 90 -63 86 -34 -3 -46 1 -62 18 -17 19
-20 39 -23 151 l-4 129 71 0 71 0 0 85 0 85 -70 0 -70 0 0 85 0 85 -85 0 c-60
0 -87 -4 -90 -12z"/>
<path d="M5921 3780 c-24 -5 -73 -23 -108 -39 l-64 -30 36 -71 c29 -58 39 -70
53 -65 115 49 171 55 207 25 32 -27 18 -47 -37 -54 -73 -10 -167 -43 -206 -72
-66 -51 -90 -150 -57 -231 21 -50 42 -72 90 -94 71 -33 156 -20 232 37 25 18
22 20 38 -31 3 -12 23 -15 90 -15 l85 0 0 218 c0 287 -15 339 -117 399 -37 21
-60 27 -122 29 -42 2 -96 -1 -120 -6z m149 -400 c0 -54 -30 -82 -85 -78 -36 3
-40 6 -43 31 -2 16 3 35 10 44 16 20 66 42 96 43 19 0 22 -5 22 -40z"/>
<path d="M4311 3758 c-24 -11 -56 -38 -71 -60 -31 -42 -40 -36 -40 27 0 41
-10 45 -106 45 l-74 0 0 -315 0 -315 105 0 105 0 0 171 c0 157 2 174 22 210
27 48 74 71 136 68 l47 -3 16 91 c18 104 19 103 -54 103 -23 0 -62 -10 -86
-22z"/>
<path d="M3667 3764 c-4 -4 -7 -146 -7 -316 l0 -308 110 0 110 0 -2 313 -3
312 -101 3 c-55 1 -103 0 -107 -4z"/>
<path d="M5030 3555 c0 -117 5 -237 11 -264 20 -97 77 -152 162 -159 67 -5
114 9 172 54 l44 33 11 -39 11 -40 84 0 85 0 0 315 0 315 -105 0 -105 0 0
-203 0 -204 -25 -23 c-17 -16 -38 -24 -59 -24 -65 0 -66 3 -66 240 l0 214
-110 0 -110 0 0 -215z"/>
<path d="M7632 3533 c3 -231 4 -240 29 -294 34 -73 75 -102 150 -107 71 -5
115 9 167 53 22 19 42 35 45 35 2 0 7 -18 11 -40 l6 -40 85 0 84 0 3 303 c2
166 1 308 -1 315 -2 8 -32 12 -107 12 l-104 0 0 -203 0 -204 -25 -23 c-28 -27
-86 -33 -107 -12 -10 9 -14 73 -16 227 l-3 215 -111 0 -110 0 4 -237z"/>
</g>
</svg>
