<?xml version="1.0" encoding="UTF-8"?>
<!DOCTYPE svg PUBLIC "-//W3C//DTD SVG 1.1//EN" "http://www.w3.org/Graphics/SVG/1.1/DTD/svg11.dtd">
<svg xmlns="http://www.w3.org/2000/svg" version="1.1" width="1080px" height="1080px" style="shape-rendering:geometricPrecision; text-rendering:geometricPrecision; image-rendering:optimizeQuality; fill-rule:evenodd; clip-rule:evenodd" xmlns:xlink="http://www.w3.org/1999/xlink">
<g><path style="opacity:0.966" fill="#00FF00" d="M 253.5,45.5 C 444.167,45.3333 634.834,45.5 825.5,46C 853.846,53.3421 873.013,70.8421 883,98.5C 951.64,271.3 960.973,447.3 911,626.5C 901.515,659.796 889.515,692.129 875,723.5C 862.495,743.182 844.662,755.015 821.5,759C 776.835,759.5 732.168,759.667 687.5,759.5C 687.5,769.167 687.5,778.833 687.5,788.5C 752.168,788.333 816.834,788.5 881.5,789C 908.686,793.188 925.186,808.688 931,835.5C 931.667,886.5 931.667,937.5 931,988.5C 925.734,1011.77 911.568,1026.6 888.5,1033C 656.112,1034.2 423.779,1034.2 191.5,1033C 166.99,1026.82 152.49,1011.32 148,986.5C 147.333,936.5 147.333,886.5 148,836.5C 153.407,809.093 169.907,793.259 197.5,789C 262.499,788.5 327.499,788.333 392.5,788.5C 392.5,778.833 392.5,769.167 392.5,759.5C 347.499,759.667 302.499,759.5 257.5,759C 226.719,752.558 206.219,734.392 196,704.5C 135.125,551.336 121.458,394.002 155,232.5C 165.672,179.817 182.339,129.15 205,80.5C 216.721,62.5665 232.888,50.8999 253.5,45.5 Z M 266.5,61.5 C 448.834,61.3333 631.167,61.5 813.5,62C 841.44,65.9336 859.607,81.4336 868,108.5C 932.158,271.188 942.158,437.188 898,606.5C 889.322,638.534 878.656,669.867 866,700.5C 856.894,724.968 839.394,738.801 813.5,742C 630.833,742.667 448.167,742.667 265.5,742C 244.306,739.455 228.473,728.955 218,710.5C 155.295,561.422 139.295,407.422 170,248.5C 179.962,197.616 194.962,148.283 215,100.5C 225.207,78.1059 242.373,65.1059 266.5,61.5 Z M 278.5,102.5 C 452.666,101.334 627,101.167 801.5,102C 794.531,107.968 787.864,114.301 781.5,121C 620.167,121.667 458.833,121.667 297.5,121C 291.298,114.631 284.965,108.464 278.5,102.5 Z M 820.5,107.5 C 829.605,125.062 837.105,143.395 843,162.5C 866.284,240.767 877.451,320.767 876.5,402.5C 876.57,480.509 865.404,556.843 843,631.5C 837.037,650.391 829.704,668.724 821,686.5C 812.959,678.291 804.792,670.291 796.5,662.5C 815.306,627.921 828.472,591.254 836,552.5C 852.661,463.231 854.994,373.564 843,283.5C 837.465,240.357 826.465,198.69 810,158.5C 806.139,149.48 801.639,140.814 796.5,132.5C 804.521,124.146 812.521,115.813 820.5,107.5 Z M 257.5,108.5 C 266.379,116.218 275.046,124.051 283.5,132C 269.701,155.713 259.201,180.88 252,207.5C 236.026,269.633 228.193,332.467 228.5,396C 228.5,449.327 233.666,502.161 244,554.5C 251.372,592.387 264.206,628.22 282.5,662C 275.029,670.638 267.029,678.805 258.5,686.5C 248.482,666.62 240.315,645.954 234,624.5C 212.565,549.524 202.399,473.024 203.5,395C 202.294,308.101 215.794,223.601 244,141.5C 248.519,130.468 253.019,119.468 257.5,108.5 Z M 299.5,139.5 C 416.5,139.333 533.5,139.5 650.5,140C 479.703,262.661 356.869,422.494 282,619.5C 267.63,581.353 257.963,542.019 253,501.5C 241.067,409.767 245.067,318.767 265,228.5C 272.484,197.204 283.984,167.537 299.5,139.5 Z M 682.5,139.5 C 715.173,139.167 747.84,139.5 780.5,140.5C 783.641,145.952 786.641,151.452 789.5,157C 617.082,254.754 489.915,393.921 408,574.5C 396.092,600.39 385.259,626.723 375.5,653.5C 349.833,654.833 324.167,654.833 298.5,653.5C 296.246,649.993 294.246,646.327 292.5,642.5C 369.037,432.952 499.037,265.286 682.5,139.5 Z M 796.5,173.5 C 808.903,203.78 817.236,235.114 821.5,267.5C 675.474,366.19 564.14,494.857 487.5,653.5C 456.505,654.667 425.505,654.833 394.5,654C 450.736,498.823 541.736,368.157 667.5,262C 708.206,229.122 751.206,199.622 796.5,173.5 Z M 823.5,287.5 C 824.75,287.577 825.583,288.244 826,289.5C 828.921,307.789 830.421,326.123 830.5,344.5C 721.113,428.36 634.946,531.36 572,653.5C 550.565,654.826 529.065,654.826 507.5,653.5C 581.68,504.65 687.013,382.65 823.5,287.5 Z M 779.5,654.5 C 716.998,654.832 654.664,654.499 592.5,653.5C 651.942,541.189 731.775,445.522 832,366.5C 835.435,432.952 829.768,498.619 815,563.5C 809.262,586.046 801.929,608.046 793,629.5C 788.98,638.214 784.48,646.547 779.5,654.5 Z M 298.5,672.5 C 459.5,672.333 620.5,672.5 781.5,673C 787.833,679.333 794.167,685.667 800.5,692C 626.5,692.667 452.5,692.667 278.5,692C 285.671,685.996 292.338,679.496 298.5,672.5 Z M 409.5,759.5 C 496.167,759.5 582.833,759.5 669.5,759.5C 669.5,769.167 669.5,778.833 669.5,788.5C 582.833,788.5 496.167,788.5 409.5,788.5C 409.5,778.833 409.5,769.167 409.5,759.5 Z M 197.5,806.5 C 295.5,806.5 393.5,806.5 491.5,806.5C 491.5,876.5 491.5,946.5 491.5,1016.5C 394.166,1016.67 296.833,1016.5 199.5,1016C 182.054,1013.86 170.887,1004.36 166,987.5C 165.333,937.167 165.333,886.833 166,836.5C 170.475,820.038 180.975,810.038 197.5,806.5 Z M 508.5,806.5 C 634.535,806.009 760.535,806.509 886.5,808C 900.432,812.265 909.265,821.432 913,835.5C 914.138,860.799 914.638,886.133 914.5,911.5C 914.638,936.867 914.138,962.201 913,987.5C 909.167,1002 900,1011.17 885.5,1015C 759.863,1016.49 634.196,1016.99 508.5,1016.5C 508.5,1007.5 508.5,998.5 508.5,989.5C 596.501,989.667 684.501,989.5 772.5,989C 775.196,988.31 777.363,986.81 779,984.5C 779.667,935.833 779.667,887.167 779,838.5C 777.363,836.19 775.196,834.69 772.5,834C 684.501,833.5 596.501,833.333 508.5,833.5C 508.5,824.5 508.5,815.5 508.5,806.5 Z M 208.5,849.5 C 288.167,849.5 367.833,849.5 447.5,849.5C 447.5,855.5 447.5,861.5 447.5,867.5C 367.833,867.5 288.167,867.5 208.5,867.5C 208.5,861.5 208.5,855.5 208.5,849.5 Z M 508.5,851.5 C 593.167,851.5 677.833,851.5 762.5,851.5C 762.5,868.5 762.5,885.5 762.5,902.5C 677.833,902.5 593.167,902.5 508.5,902.5C 508.5,885.5 508.5,868.5 508.5,851.5 Z M 817.5,851.5 C 824.5,851.5 831.5,851.5 838.5,851.5C 838.5,891.5 838.5,931.5 838.5,971.5C 831.5,971.5 824.5,971.5 817.5,971.5C 817.5,931.5 817.5,891.5 817.5,851.5 Z M 855.5,851.5 C 862.167,851.5 868.833,851.5 875.5,851.5C 875.5,891.5 875.5,931.5 875.5,971.5C 868.833,971.5 862.167,971.5 855.5,971.5C 855.5,931.5 855.5,891.5 855.5,851.5 Z M 508.5,920.5 C 593.167,920.5 677.833,920.5 762.5,920.5C 762.5,937.5 762.5,954.5 762.5,971.5C 677.833,971.5 593.167,971.5 508.5,971.5C 508.5,954.5 508.5,937.5 508.5,920.5 Z"/></g>
<g><path style="opacity:0.955" fill="#0b1c6e" d="M 254.5,83.5 C 444.5,83.3333 634.5,83.5 824.5,84C 826.869,84.5359 828.869,85.7026 830.5,87.5C 851.716,128.645 866.883,171.978 876,217.5C 899.632,336.144 899.965,454.811 877,573.5C 868.739,614.282 856.072,653.615 839,691.5C 835.877,697.582 832.377,703.415 828.5,709C 636.913,710.664 445.247,710.998 253.5,710C 251.376,708.878 249.543,707.378 248,705.5C 226.103,662.811 210.77,617.811 202,570.5C 179.094,449.955 180.094,329.621 205,209.5C 213.643,167.903 227.643,128.237 247,90.5C 248.767,87.228 251.267,84.8947 254.5,83.5 Z M 278.5,102.5 C 284.965,108.464 291.298,114.631 297.5,121C 458.833,121.667 620.167,121.667 781.5,121C 787.864,114.301 794.531,107.968 801.5,102C 627,101.167 452.666,101.334 278.5,102.5 Z M 820.5,107.5 C 812.521,115.813 804.521,124.146 796.5,132.5C 801.639,140.814 806.139,149.48 810,158.5C 826.465,198.69 837.465,240.357 843,283.5C 854.994,373.564 852.661,463.231 836,552.5C 828.472,591.254 815.306,627.921 796.5,662.5C 804.792,670.291 812.959,678.291 821,686.5C 829.704,668.724 837.037,650.391 843,631.5C 865.404,556.843 876.57,480.509 876.5,402.5C 877.451,320.767 866.284,240.767 843,162.5C 837.105,143.395 829.605,125.062 820.5,107.5 Z M 257.5,108.5 C 253.019,119.468 248.519,130.468 244,141.5C 215.794,223.601 202.294,308.101 203.5,395C 202.399,473.024 212.565,549.524 234,624.5C 240.315,645.954 248.482,666.62 258.5,686.5C 267.029,678.805 275.029,670.638 282.5,662C 264.206,628.22 251.372,592.387 244,554.5C 233.666,502.161 228.5,449.327 228.5,396C 228.193,332.467 236.026,269.633 252,207.5C 259.201,180.88 269.701,155.713 283.5,132C 275.046,124.051 266.379,116.218 257.5,108.5 Z M 299.5,139.5 C 283.984,167.537 272.484,197.204 265,228.5C 245.067,318.767 241.067,409.767 253,501.5C 257.963,542.019 267.63,581.353 282,619.5C 356.869,422.494 479.703,262.661 650.5,140C 533.5,139.5 416.5,139.333 299.5,139.5 Z M 682.5,139.5 C 499.037,265.286 369.037,432.952 292.5,642.5C 294.246,646.327 296.246,649.993 298.5,653.5C 324.167,654.833 349.833,654.833 375.5,653.5C 385.259,626.723 396.092,600.39 408,574.5C 489.915,393.921 617.082,254.754 789.5,157C 786.641,151.452 783.641,145.952 780.5,140.5C 747.84,139.5 715.173,139.167 682.5,139.5 Z M 796.5,173.5 C 751.206,199.622 708.206,229.122 667.5,262C 541.736,368.157 450.736,498.823 394.5,654C 425.505,654.833 456.505,654.667 487.5,653.5C 564.14,494.857 675.474,366.19 821.5,267.5C 817.236,235.114 808.903,203.78 796.5,173.5 Z M 823.5,287.5 C 687.013,382.65 581.68,504.65 507.5,653.5C 529.065,654.826 550.565,654.826 572,653.5C 634.946,531.36 721.113,428.36 830.5,344.5C 830.421,326.123 828.921,307.789 826,289.5C 825.583,288.244 824.75,287.577 823.5,287.5 Z M 779.5,654.5 C 716.998,654.832 654.664,654.499 592.5,653.5C 651.942,541.189 731.775,445.522 832,366.5C 835.435,432.952 829.768,498.619 815,563.5C 809.262,586.046 801.929,608.046 793,629.5C 788.98,638.214 784.48,646.547 779.5,654.5 Z M 298.5,672.5 C 292.338,679.496 285.671,685.996 278.5,692C 452.5,692.667 626.5,692.667 800.5,692C 794.167,685.667 787.833,679.333 781.5,673C 620.5,672.5 459.5,672.333 298.5,672.5 Z"/></g>
<g><path style="opacity:0.016" fill="#00007f" d="M 592.5,653.5 C 654.664,654.499 716.998,654.832 779.5,654.5C 716.999,655.832 654.332,655.832 591.5,654.5C 591.624,653.893 591.957,653.56 592.5,653.5 Z"/></g>
<g><path style="opacity:0.96" fill="#0a1c6f" d="M 198.5,831.5 C 284.501,831.333 370.501,831.5 456.5,832C 460.02,832.504 462.52,834.337 464,837.5C 464.667,851.833 464.667,866.167 464,880.5C 462.833,881.667 461.667,882.833 460.5,884C 440.234,885.465 419.901,885.965 399.5,885.5C 399.666,894.506 399.5,903.506 399,912.5C 393.667,919.167 388.333,919.167 383,912.5C 382.5,903.506 382.334,894.506 382.5,885.5C 367.167,885.5 351.833,885.5 336.5,885.5C 336.666,894.506 336.5,903.506 336,912.5C 330.172,919.328 324.838,918.995 320,911.5C 319.5,902.84 319.334,894.173 319.5,885.5C 304.167,885.5 288.833,885.5 273.5,885.5C 273.666,894.506 273.5,903.506 273,912.5C 267.172,919.328 261.838,918.995 257,911.5C 256.5,902.84 256.334,894.173 256.5,885.5C 236.099,885.965 215.766,885.465 195.5,884C 194.333,882.833 193.167,881.667 192,880.5C 191.333,865.833 191.333,851.167 192,836.5C 193.805,834.174 195.972,832.508 198.5,831.5 Z M 208.5,849.5 C 208.5,855.5 208.5,861.5 208.5,867.5C 288.167,867.5 367.833,867.5 447.5,867.5C 447.5,861.5 447.5,855.5 447.5,849.5C 367.833,849.5 288.167,849.5 208.5,849.5 Z"/></g>
<g><path style="opacity:0.958" fill="#0b1c6e" d="M 806.5,833.5 C 833.169,833.333 859.835,833.5 886.5,834C 888.848,834.346 890.681,835.513 892,837.5C 893.657,886.417 893.99,935.417 893,984.5C 891.833,985.667 890.667,986.833 889.5,988C 861.92,989.649 834.253,989.982 806.5,989C 804.376,987.878 802.543,986.378 801,984.5C 800.333,935.833 800.333,887.167 801,838.5C 802.73,836.598 804.563,834.931 806.5,833.5 Z M 817.5,851.5 C 817.5,891.5 817.5,931.5 817.5,971.5C 824.5,971.5 831.5,971.5 838.5,971.5C 838.5,931.5 838.5,891.5 838.5,851.5C 831.5,851.5 824.5,851.5 817.5,851.5 Z M 855.5,851.5 C 855.5,891.5 855.5,931.5 855.5,971.5C 862.167,971.5 868.833,971.5 875.5,971.5C 875.5,931.5 875.5,891.5 875.5,851.5C 868.833,851.5 862.167,851.5 855.5,851.5 Z"/></g>
</svg>
